<svg width="479" height="101" viewBox="0 0 479 101" fill="none" xmlns="http://www.w3.org/2000/svg">
<g clip-path="url(#clip0_1_51)">
<path d="M136.136 54.0279C136.142 54.7547 136.003 55.4752 135.728 56.1477C135.466 56.7841 135.077 57.361 134.586 57.8428C134.09 58.3216 133.509 58.702 132.872 58.9637C132.212 59.2375 131.504 59.3763 130.79 59.3716H106.876C104.572 59.3672 102.274 59.1212 100.021 58.6377C97.7026 58.146 95.4497 57.386 93.3078 56.3727C91.1192 55.3353 89.07 54.026 87.2091 52.4759C85.2737 50.8639 83.589 48.9729 82.2102 46.8651C80.7234 44.5713 79.5892 42.0675 78.8454 39.4372C78.0294 36.6486 77.6215 33.5404 77.6215 30.1125V0.855469H88.2311V30.1146C88.2311 33.1093 88.6461 35.6398 89.4761 37.7065C90.2035 39.6114 91.2725 41.3674 92.6306 42.8883C93.8304 44.2144 95.2541 45.3191 96.8366 46.1521C98.221 46.8863 99.6778 47.4747 101.184 47.9081C102.371 48.2528 103.586 48.4913 104.815 48.6211C105.867 48.7178 106.55 48.7641 106.876 48.7641H125.526V0.855469H136.136V54.0279Z" fill="white"/>
<path d="M206.935 54.8436C206.944 55.5725 206.801 56.2953 206.514 56.9655C206.244 57.5973 205.856 58.1724 205.372 58.6605C204.887 59.1421 204.311 59.523 203.677 59.7814C203.019 60.0555 202.311 60.1943 201.598 60.1894C200.921 60.1852 200.25 60.0613 199.617 59.8235C198.941 59.572 198.333 59.1667 197.842 58.6395L159.068 18.1587V59.3777H148.459V5.38506C148.45 4.32718 148.771 3.29288 149.378 2.42613C149.963 1.56379 150.774 0.879158 151.723 0.447198C152.704 0.0421646 153.783 -0.0639233 154.825 0.14226C155.87 0.338111 156.827 0.859213 157.559 1.63119L196.325 42.072V0.853078H206.935V54.8436Z" fill="white"/>
<path d="M276.678 59.3748H266.069V45.0028H228.77V59.3664H218.16V30.1156C218.16 25.8465 218.894 21.9154 220.364 18.322C221.754 14.8539 223.836 11.7055 226.484 9.06874C229.134 6.45817 232.28 4.40454 235.737 3.0289C239.302 1.58624 243.192 0.864911 247.409 0.864911H271.322C272.035 0.86118 272.744 0.999884 273.402 1.27289C274.043 1.53768 274.626 1.92644 275.116 2.41689C275.606 2.90735 275.995 3.48982 276.26 4.13088C276.533 4.79013 276.672 5.49722 276.668 6.21075L276.678 59.3748ZM228.77 34.4016H266.069V11.4788H247.419C247.093 11.4788 246.408 11.5258 245.358 11.6197C244.128 11.7512 242.915 11.9904 241.726 12.3347C240.221 12.7679 238.763 13.3556 237.38 14.0886C235.798 14.9231 234.374 16.0285 233.174 17.3546C231.811 18.8801 230.742 20.6439 230.019 22.5574C229.188 24.6367 228.774 27.1603 228.774 30.1283L228.77 34.4016Z" fill="white"/>
<path d="M347.559 0.855469L319.851 57.2939C319.416 58.1637 318.743 58.8926 317.912 59.3969C317.061 59.9252 316.077 60.2009 315.076 60.1918C314.087 60.1966 313.118 59.9212 312.281 59.3969C311.444 58.8871 310.76 58.1603 310.302 57.2939L282.643 0.855469H294.517L315.084 43.0102L335.733 0.855469H347.559Z" fill="white"/>
<path d="M412.036 20.5251C412.067 22.7215 411.764 24.9099 411.138 27.015C410.593 28.8124 409.775 30.515 408.711 32.0622C407.729 33.4775 406.539 34.7368 405.18 35.7971C403.889 36.8045 402.484 37.6598 400.997 38.346C399.586 38.9983 398.103 39.4846 396.581 39.795C395.205 40.0839 393.803 40.2347 392.398 40.245L414.555 59.3824H398.152L376.032 40.245H368.403V29.6248H392.398C393.651 29.5331 394.882 29.2494 396.049 28.7836C397.107 28.3626 398.076 27.7462 398.907 26.9666C399.716 26.1927 400.349 25.2529 400.764 24.2117C401.216 23.034 401.439 21.7802 401.416 20.5188V13.8333C401.439 13.3669 401.363 12.9008 401.191 12.4664C401.069 12.1877 400.873 11.9482 400.623 11.7745C400.402 11.6291 400.15 11.5382 399.887 11.5095C399.649 11.4837 399.411 11.4704 399.174 11.4696H364.169V59.3761H353.56V6.20153C353.555 5.4879 353.694 4.78059 353.968 4.12166C354.228 3.48424 354.609 2.90253 355.088 2.40771C355.57 1.9147 356.146 1.52536 356.783 1.26367C357.456 0.987881 358.178 0.849177 358.905 0.855688H399.182C401.548 0.855688 403.548 1.28471 405.18 2.14273C406.719 2.92328 408.076 4.02219 409.159 5.36664C410.151 6.60836 410.9 8.02795 411.363 9.54952C411.79 10.9114 412.017 12.3283 412.036 13.7555V20.5251Z" fill="white"/>
<path d="M478.434 20.4429C478.468 22.6407 478.159 24.8302 477.517 26.9328C476.96 28.7251 476.142 30.4256 475.088 31.98C474.112 33.4016 472.922 34.6619 471.557 35.7149C470.262 36.7172 468.861 37.5721 467.376 38.2638C465.976 38.9178 464.504 39.4042 462.99 39.7127C461.614 40.0017 460.211 40.1525 458.807 40.1628H454.521V59.3821H443.829V40.1649H439.585C438.18 40.1546 436.778 40.004 435.402 39.7148C433.88 39.4057 432.397 38.9195 430.986 38.2659C429.497 37.5813 428.094 36.726 426.803 35.717C425.447 34.6504 424.259 33.3848 423.279 31.9631C422.212 30.4141 421.386 28.7123 420.831 26.9159C420.191 24.8201 419.882 22.6378 419.912 20.4471V0.855469H430.521V20.4429C430.502 21.7179 430.723 22.9854 431.175 24.1778C431.585 25.2403 432.21 26.2062 433.011 27.0148C433.827 27.8213 434.809 28.4404 435.888 28.8297C437.097 29.2652 438.376 29.4789 439.663 29.4606H458.8C459.806 29.2965 460.838 29.0862 461.9 28.8297C462.943 28.5798 463.928 28.1292 464.798 27.5027C465.719 26.8188 466.46 25.9237 466.962 24.8928C467.532 23.7713 467.818 22.2878 467.818 20.4429V0.855469H478.434V20.4429Z" fill="white"/>
<path d="M69.7897 0.129671C69.7897 0.129671 32.392 -0.185776 25.3595 0.310533C25.3595 0.310533 6.22215 0.861518 2.7648 19.4731L2.03296 40.1688C2.03296 40.1688 4.07077 20.0073 33.5066 22.5036C33.5066 22.5036 70.3386 27.6812 69.7897 0.129671Z" fill="url(#paint0_linear_1_51)"/>
<path d="M55.9779 29.4925C55.9779 29.4925 25.1057 29.2338 19.3014 29.6439C19.3014 29.6439 3.49733 30.0961 0.647752 45.4606L0.0441895 62.5518C0.0441895 62.5518 1.72659 45.9065 26.0247 47.9632C26.0247 47.9632 56.43 52.2365 55.9779 29.4925Z" fill="url(#paint1_linear_1_51)"/>
<path d="M23.4023 54.2435C23.4023 54.2435 26.2392 98.4066 0.0441895 100.489V71.1706C0.0441895 71.1706 0.517366 55.0994 23.4023 54.2435Z" fill="url(#paint2_linear_1_51)"/>
<path d="M67.0211 86.8763H70.841V88.2701C70.841 90.5758 70.4281 92.1502 69.6021 92.9934C68.7934 93.8193 67.2103 94.2323 64.853 94.2323H63.0979C60.7405 94.2323 59.1489 93.8193 58.3229 92.9934C57.5142 92.1502 57.1099 90.5758 57.1099 88.2701V81.611C57.1099 79.3052 57.5142 77.7394 58.3229 76.9135C59.1489 76.0703 60.7405 75.6488 63.0979 75.6488H64.853C67.2103 75.6488 68.7934 76.0703 69.6021 76.9135C70.4281 77.7394 70.841 79.3052 70.841 81.611V83.0047H67.0211V81.6626C67.0211 80.5441 66.8576 79.8042 66.5307 79.4429C66.2209 79.0643 65.5929 78.8751 64.6465 78.8751H63.3044C62.358 78.8751 61.7213 79.0643 61.3944 79.4429C61.0847 79.8042 60.9298 80.5441 60.9298 81.6626V88.2185C60.9298 89.3369 61.0847 90.0854 61.3944 90.464C61.7213 90.8253 62.358 91.006 63.3044 91.006H64.6465C65.5929 91.006 66.2209 90.8253 66.5307 90.464C66.8576 90.0854 67.0211 89.3369 67.0211 88.2185V86.8763ZM89.6893 81.6626V88.2185C89.6893 89.3369 89.8442 90.0854 90.1539 90.464C90.4808 90.8253 91.1175 91.006 92.0639 91.006H93.406C94.3524 91.006 94.9805 90.8253 95.2902 90.464C95.6171 90.0854 95.7806 89.3369 95.7806 88.2185V81.6626C95.7806 80.5441 95.6171 79.8042 95.2902 79.4429C94.9805 79.0643 94.3524 78.8751 93.406 78.8751H92.0639C91.1175 78.8751 90.4808 79.0643 90.1539 79.4429C89.8442 79.8042 89.6893 80.5441 89.6893 81.6626ZM85.8694 88.2701V81.611C85.8694 79.3052 86.2737 77.7394 87.0825 76.9135C87.9084 76.0703 89.5 75.6488 91.8574 75.6488H93.6125C95.9699 75.6488 97.5529 76.0703 98.3616 76.9135C99.1876 77.7394 99.6005 79.3052 99.6005 81.611V88.2701C99.6005 90.5758 99.1876 92.1502 98.3616 92.9934C97.5529 93.8193 95.9699 94.2323 93.6125 94.2323H91.8574C89.5 94.2323 87.9084 93.8193 87.0825 92.9934C86.2737 92.1502 85.8694 90.5758 85.8694 88.2701ZM123.301 75.881H126.605L129.573 87.8055L132.232 75.881H136.129L131.844 94H127.637L124.953 83.2112L122.269 94H118.062L113.777 75.881H117.675L120.333 87.8055L123.301 75.881ZM154.115 81.6626V88.2185C154.115 89.3369 154.27 90.0854 154.579 90.464C154.906 90.8253 155.543 91.006 156.489 91.006H157.831C158.778 91.006 159.406 90.8253 159.716 90.464C160.042 90.0854 160.206 89.3369 160.206 88.2185V81.6626C160.206 80.5441 160.042 79.8042 159.716 79.4429C159.406 79.0643 158.778 78.8751 157.831 78.8751H156.489C155.543 78.8751 154.906 79.0643 154.579 79.4429C154.27 79.8042 154.115 80.5441 154.115 81.6626ZM150.295 88.2701V81.611C150.295 79.3052 150.699 77.7394 151.508 76.9135C152.334 76.0703 153.925 75.6488 156.283 75.6488H158.038C160.395 75.6488 161.978 76.0703 162.787 76.9135C163.613 77.7394 164.026 79.3052 164.026 81.611V88.2701C164.026 90.5758 163.613 92.1502 162.787 92.9934C161.978 93.8193 160.395 94.2323 158.038 94.2323H156.283C153.925 94.2323 152.334 93.8193 151.508 92.9934C150.699 92.1502 150.295 90.5758 150.295 88.2701ZM192.422 83.0305C192.422 84.5448 192.207 85.7062 191.776 86.515C191.363 87.3065 190.658 87.8571 189.66 88.1668L192.473 94H188.473L186.021 88.5282H183.388V94H179.568V75.881H186.434C188.722 75.881 190.288 76.2768 191.131 77.0683C191.991 77.8598 192.422 79.2966 192.422 81.3787V83.0305ZM183.388 85.2761H186.408C187.234 85.2761 187.802 85.104 188.111 84.7598C188.438 84.4157 188.602 83.8135 188.602 82.9531V81.4561C188.602 80.5958 188.438 79.9935 188.111 79.6494C187.802 79.3052 187.234 79.1332 186.408 79.1332H183.388V85.2761ZM211.593 94H207.773V75.881H211.593V83.3145H214.432L217.142 75.881H221.143L217.736 84.8631L221.478 94H217.478L214.51 86.5666H211.593V94ZM239.95 94H236.13V75.881H239.95V94ZM259.761 94H255.941V75.881H259.503L265.104 86.9537V75.881H268.924V94H265.362L259.761 82.9273V94ZM298.195 84.2178V88.2701C298.195 90.5758 297.782 92.1502 296.956 92.9934C296.147 93.8193 294.564 94.2323 292.207 94.2323H290.452C288.095 94.2323 286.503 93.8193 285.677 92.9934C284.868 92.1502 284.464 90.5758 284.464 88.2701V81.611C284.464 79.3052 284.868 77.7394 285.677 76.9135C286.503 76.0703 288.095 75.6488 290.452 75.6488H292.207C294.564 75.6488 296.147 76.0703 296.956 76.9135C297.782 77.7394 298.195 79.3052 298.195 81.611V82.6176H294.375V81.6626C294.375 80.5441 294.212 79.8042 293.885 79.4429C293.575 79.0643 292.947 78.8751 292 78.8751H290.658C289.712 78.8751 289.075 79.0643 288.748 79.4429C288.439 79.8042 288.284 80.5441 288.284 81.6626V88.2185C288.284 89.3369 288.439 90.0854 288.748 90.464C289.075 90.8253 289.712 91.006 290.658 91.006H292C292.947 91.006 293.575 90.8253 293.885 90.464C294.212 90.0854 294.375 89.3369 294.375 88.2185V87.0828H291.82V84.2178H298.195ZM344.276 88.683V89.4057C344.276 91.2469 343.88 92.5116 343.089 93.1999C342.314 93.8882 340.835 94.2323 338.649 94.2323H337.41C335.225 94.2323 333.737 93.8882 332.945 93.1999C332.171 92.5116 331.784 91.2469 331.784 89.4057V88.141H335.604V89.5864C335.604 90.1887 335.733 90.6016 335.991 90.8253C336.266 91.049 336.774 91.1608 337.514 91.1608H338.546C339.286 91.1608 339.785 91.049 340.043 90.8253C340.318 90.6016 340.456 90.1887 340.456 89.5864V88.6572C340.456 88.0378 340.344 87.6248 340.121 87.4183C339.897 87.1946 339.338 86.9709 338.443 86.7473L335.552 86.0246C333.814 85.5944 332.696 85.061 332.197 84.4243C331.715 83.7877 331.474 82.6262 331.474 80.9399V80.4753C331.474 78.6342 331.861 77.3695 332.635 76.6812C333.427 75.9929 334.915 75.6488 337.101 75.6488H338.314C340.499 75.6488 341.979 75.9929 342.753 76.6812C343.545 77.3695 343.94 78.6342 343.94 80.4753V81.74H340.121V80.2946C340.121 79.6924 339.983 79.2794 339.708 79.0557C339.449 78.832 338.95 78.7202 338.211 78.7202H337.204C336.464 78.7202 335.956 78.832 335.681 79.0557C335.423 79.2794 335.294 79.6924 335.294 80.2946V80.9657C335.294 81.5852 335.406 82.0067 335.629 82.2304C335.853 82.4369 336.412 82.652 337.307 82.8757L340.198 83.5984C341.936 84.0286 343.046 84.562 343.527 85.1986C344.026 85.8353 344.276 86.9968 344.276 88.683ZM363.507 85.5342H366.527C367.353 85.5342 367.92 85.3621 368.23 85.018C368.557 84.6738 368.721 84.0716 368.721 83.2112V81.4561C368.721 80.5958 368.557 79.9935 368.23 79.6494C367.92 79.3052 367.353 79.1332 366.527 79.1332H363.507V85.5342ZM366.552 88.7863H363.507V94H359.687V75.881H366.552C368.841 75.881 370.407 76.2768 371.25 77.0683C372.11 77.8598 372.54 79.2966 372.54 81.3787V83.2887C372.54 85.3707 372.11 86.8075 371.25 87.599C370.407 88.3905 368.841 88.7863 366.552 88.7863ZM396.721 94L395.792 90.6188H390.114L389.184 94H385.21L390.656 75.881H395.25L400.696 94H396.721ZM392.953 80.243L390.914 87.6248H394.966L392.953 80.243ZM424.31 86.8763H428.13V88.2701C428.13 90.5758 427.717 92.1502 426.891 92.9934C426.082 93.8193 424.499 94.2323 422.142 94.2323H420.386C418.029 94.2323 416.437 93.8193 415.611 92.9934C414.803 92.1502 414.398 90.5758 414.398 88.2701V81.611C414.398 79.3052 414.803 77.7394 415.611 76.9135C416.437 76.0703 418.029 75.6488 420.386 75.6488H422.142C424.499 75.6488 426.082 76.0703 426.891 76.9135C427.717 77.7394 428.13 79.3052 428.13 81.611V83.0047H424.31V81.6626C424.31 80.5441 424.146 79.8042 423.819 79.4429C423.509 79.0643 422.881 78.8751 421.935 78.8751H420.593C419.647 78.8751 419.01 79.0643 418.683 79.4429C418.373 79.8042 418.218 80.5441 418.218 81.6626V88.2185C418.218 89.3369 418.373 90.0854 418.683 90.464C419.01 90.8253 419.647 91.006 420.593 91.006H421.935C422.881 91.006 423.509 90.8253 423.819 90.464C424.146 90.0854 424.31 89.3369 424.31 88.2185V86.8763ZM454.876 94H443.571V75.881H454.747V79.1332H447.391V83.2887H453.792V86.5408H447.391V90.7479H454.876V94Z" fill="#F59F13"/>
</g>
<defs>
<linearGradient id="paint0_linear_1_51" x1="2.03296" y1="20.104" x2="69.7961" y2="20.104" gradientUnits="userSpaceOnUse">
<stop stop-color="#449ED8"/>
<stop offset="0.21" stop-color="#3E80AB"/>
<stop offset="0.47" stop-color="#376079"/>
<stop offset="0.7" stop-color="#324854"/>
<stop offset="0.88" stop-color="#2F393E"/>
<stop offset="1" stop-color="#2E3436"/>
</linearGradient>
<linearGradient id="paint1_linear_1_51" x1="0.0441895" y1="45.9822" x2="55.9821" y2="45.9822" gradientUnits="userSpaceOnUse">
<stop stop-color="#449ED8"/>
<stop offset="0.21" stop-color="#3E80AB"/>
<stop offset="0.47" stop-color="#376079"/>
<stop offset="0.7" stop-color="#324854"/>
<stop offset="0.88" stop-color="#2F393E"/>
<stop offset="1" stop-color="#2E3436"/>
</linearGradient>
<linearGradient id="paint2_linear_1_51" x1="0.0441895" y1="77.366" x2="23.4927" y2="77.366" gradientUnits="userSpaceOnUse">
<stop stop-color="#449ED8"/>
<stop offset="0.21" stop-color="#3E80AB"/>
<stop offset="0.47" stop-color="#376079"/>
<stop offset="0.7" stop-color="#324854"/>
<stop offset="0.88" stop-color="#2F393E"/>
<stop offset="1" stop-color="#2E3436"/>
</linearGradient>
<clipPath id="clip0_1_51">
<rect width="478.644" height="100.524" fill="white"/>
</clipPath>
</defs>
</svg>
